<?xml version="1.0" standalone="no"?>
<!DOCTYPE svg PUBLIC "-//W3C//DTD SVG 20010904//EN"
 "http://www.w3.org/TR/2001/REC-SVG-20010904/DTD/svg10.dtd">
<svg version="1.0" xmlns="http://www.w3.org/2000/svg"
 width="52.000000pt" height="52.000000pt" viewBox="0 0 512.000000 512.000000"
 preserveAspectRatio="xMidYMid meet">

<g transform="translate(0.000000,512.000000) scale(0.100000,-0.100000)"
fill="#000000" stroke="none">
<path d="M332 5104 c-111 -30 -212 -115 -265 -224 l-32 -65 0 -1656 0 -1655
38 -76 c43 -88 107 -152 195 -195 l57 -28 1017 -3 1017 -2 3 -503 3 -502 31
-55 c33 -60 99 -112 162 -130 24 -6 429 -10 1168 -10 1255 0 1191 -3 1273 67
24 20 54 60 67 87 l24 51 0 1756 c0 1915 4 1796 -56 1875 -15 19 -48 47 -73
62 l-46 27 -275 5 -275 5 -5 435 -5 435 -32 67 c-44 94 -109 160 -202 206
l-75 37 -1830 2 c-1565 2 -1839 0 -1884 -13z m3723 -181 c47 -25 85 -64 111
-113 18 -32 19 -68 22 -452 l3 -418 -459 0 -459 0 -17 63 c-45 163 -168 362
-304 489 -211 198 -465 298 -757 298 -310 0 -564 -106 -788 -328 -123 -121
-211 -263 -267 -431 -40 -120 -48 -197 -26 -256 22 -56 82 -109 141 -124 29
-7 221 -11 574 -11 l531 0 0 -1135 0 -1135 -987 0 -988 0 -51 24 c-54 25 -93
68 -119 129 -13 32 -15 222 -15 1628 0 1179 3 1602 12 1630 20 70 90 136 168
160 14 4 837 7 1830 6 l1805 -2 40 -22z m-1670 -322 c316 -65 575 -289 691
-597 l24 -63 -245 -3 -244 -3 -62 63 c-61 61 -197 142 -239 142 -14 0 -23 22
-44 106 -15 59 -25 108 -22 111 2 2 21 -3 41 -11 50 -21 77 -20 109 5 32 25
36 85 9 117 -10 11 -78 48 -150 82 -185 86 -175 91 -306 -130 -65 -109 -71
-147 -32 -185 42 -43 97 -31 138 31 l24 35 17 -65 c9 -36 16 -67 16 -69 0 -3
-19 -7 -42 -11 -173 -27 -340 -142 -418 -288 l-31 -58 -158 0 c-203 0 -203 0
-177 101 91 355 364 615 727 694 94 20 267 18 374 -4z m-213 -686 c10 -38 18
-76 18 -82 0 -10 -44 -13 -186 -13 l-185 0 20 29 c49 68 198 143 275 138 l40
-2 18 -70z m229 -14 c44 -39 44 -39 25 -60 -34 -37 -52 -27 -69 39 -8 33 -11
60 -7 60 4 0 27 -18 51 -39z m2169 -510 c6 -13 10 -172 10 -448 0 -355 -2
-433 -14 -449 -14 -18 -36 -19 -830 -22 l-817 -2 -24 24 -25 25 0 423 c0 367
2 427 16 446 l15 22 829 0 c810 0 830 0 840 -19z m-1400 -1471 l0 -130 -125 0
-125 0 0 130 0 130 125 0 125 0 0 -130z m680 0 l0 -130 -125 0 -125 0 0 130 0
130 125 0 125 0 0 -130z m690 0 l0 -130 -130 0 -130 0 0 130 0 130 130 0 130
0 0 -130z m-1370 -685 l0 -125 -125 0 -125 0 0 125 0 125 125 0 125 0 0 -125z
m680 0 l0 -125 -125 0 -125 0 0 125 0 125 125 0 125 0 0 -125z m690 0 l0 -125
-130 0 -130 0 0 125 0 125 130 0 130 0 0 -125z m-1370 -680 l0 -125 -125 0
-125 0 0 125 0 125 125 0 125 0 0 -125z m680 0 l0 -125 -125 0 -125 0 0 125 0
125 125 0 125 0 0 -125z m690 0 l0 -125 -130 0 -130 0 0 125 0 125 130 0 130
0 0 -125z"/>
<path d="M3034 3321 c-53 -23 -54 -30 -54 -379 l0 -324 29 -29 c29 -29 31 -29
142 -29 137 0 182 13 234 65 66 66 85 184 44 274 -19 43 -19 46 -2 80 9 20 19
67 21 106 3 62 0 76 -25 125 -21 40 -42 63 -78 85 -46 29 -54 30 -169 32 -67
2 -131 -1 -142 -6z m230 -177 c19 -18 21 -85 4 -102 -7 -7 -36 -12 -65 -12
l-53 0 0 65 0 65 49 0 c32 0 55 -6 65 -16z m0 -300 c19 -18 21 -85 4 -102 -7
-7 -36 -12 -65 -12 l-53 0 0 65 0 65 49 0 c32 0 55 -6 65 -16z"/>
<path d="M3562 3320 c-48 -20 -52 -53 -52 -420 l0 -340 85 0 85 0 2 213 3 212
49 -65 c64 -85 82 -100 121 -100 39 0 57 15 121 100 l49 65 3 -212 2 -213 85
0 85 0 0 348 c0 325 -1 349 -19 379 -23 37 -68 51 -105 31 -13 -7 -68 -70
-121 -140 -52 -71 -97 -128 -100 -128 -3 0 -48 57 -101 128 -113 151 -133 165
-192 142z"/>
<path d="M4280 2945 l0 -385 85 0 85 0 0 385 0 385 -85 0 -85 0 0 -385z"/>
</g>
</svg>
